<mxfile host="app.diagrams.net" modified="2023-09-28T15:49:27.686Z" agent="Mozilla/5.0 (Windows NT 10.0; Win64; x64) AppleWebKit/537.36 (KHTML, like Gecko) Chrome/116.0.0.0 Safari/537.36" etag="aJelO7WWTW9xU2KJnX57" version="21.8.2" type="device">
  <diagram name="Страница — 1" id="AwAv7-zIrgekze_ICKMB">
    <mxGraphModel dx="1060" dy="458" grid="1" gridSize="10" guides="1" tooltips="1" connect="1" arrows="1" fold="1" page="1" pageScale="1" pageWidth="827" pageHeight="1169" math="0" shadow="0">
      <root>
        <mxCell id="0" />
        <mxCell id="1" parent="0" />
        <mxCell id="qByTygdXkCZE7n3OVfzW-1" value="Споживач" style="shape=umlActor;verticalLabelPosition=bottom;verticalAlign=top;html=1;outlineConnect=0;" vertex="1" parent="1">
          <mxGeometry x="120" y="150" width="30" height="60" as="geometry" />
        </mxCell>
        <mxCell id="qByTygdXkCZE7n3OVfzW-2" value="Аналіз &lt;br&gt;наданої інформації" style="ellipse;whiteSpace=wrap;html=1;" vertex="1" parent="1">
          <mxGeometry x="290" y="210" width="170" height="50" as="geometry" />
        </mxCell>
        <mxCell id="qByTygdXkCZE7n3OVfzW-3" value="Отримання повідомлень про освітленість" style="ellipse;whiteSpace=wrap;html=1;" vertex="1" parent="1">
          <mxGeometry x="292.5" y="110" width="170" height="60" as="geometry" />
        </mxCell>
        <mxCell id="qByTygdXkCZE7n3OVfzW-4" value="Надсилання повідомлень та отримання інформації про псих.-емоц. стан" style="ellipse;whiteSpace=wrap;html=1;" vertex="1" parent="1">
          <mxGeometry x="277.5" y="10" width="200" height="60" as="geometry" />
        </mxCell>
        <mxCell id="qByTygdXkCZE7n3OVfzW-5" value="Надання питань та відповідей" style="ellipse;whiteSpace=wrap;html=1;" vertex="1" parent="1">
          <mxGeometry x="295" y="290" width="165" height="50" as="geometry" />
        </mxCell>
        <mxCell id="qByTygdXkCZE7n3OVfzW-6" value="Авторизація" style="ellipse;whiteSpace=wrap;html=1;" vertex="1" parent="1">
          <mxGeometry x="300" y="370" width="160" height="50" as="geometry" />
        </mxCell>
        <mxCell id="qByTygdXkCZE7n3OVfzW-8" value="Користувач" style="shape=umlActor;verticalLabelPosition=bottom;verticalAlign=top;html=1;" vertex="1" parent="1">
          <mxGeometry x="110" y="310" width="30" height="60" as="geometry" />
        </mxCell>
        <mxCell id="qByTygdXkCZE7n3OVfzW-11" value="Технічна підтримка" style="shape=umlActor;verticalLabelPosition=bottom;verticalAlign=top;html=1;" vertex="1" parent="1">
          <mxGeometry x="650" y="200" width="30" height="60" as="geometry" />
        </mxCell>
        <mxCell id="qByTygdXkCZE7n3OVfzW-14" value="&amp;lt;&amp;lt;include&amp;gt;&amp;gt;" style="html=1;verticalAlign=bottom;labelBackgroundColor=none;endArrow=open;endFill=0;dashed=1;rounded=0;exitX=0.056;exitY=0.797;exitDx=0;exitDy=0;exitPerimeter=0;entryX=0.049;entryY=0.205;entryDx=0;entryDy=0;entryPerimeter=0;" edge="1" parent="1" source="qByTygdXkCZE7n3OVfzW-4" target="qByTygdXkCZE7n3OVfzW-6">
          <mxGeometry x="0.5288" y="-25" width="160" relative="1" as="geometry">
            <mxPoint x="330" y="280" as="sourcePoint" />
            <mxPoint x="490" y="280" as="targetPoint" />
            <Array as="points">
              <mxPoint x="260" y="140" />
              <mxPoint x="250" y="250" />
              <mxPoint x="270" y="340" />
            </Array>
            <mxPoint as="offset" />
          </mxGeometry>
        </mxCell>
        <mxCell id="qByTygdXkCZE7n3OVfzW-15" value="&amp;lt;&amp;lt;include&amp;gt;&amp;gt;" style="html=1;verticalAlign=bottom;labelBackgroundColor=none;endArrow=open;endFill=0;dashed=1;rounded=0;exitX=0.5;exitY=0;exitDx=0;exitDy=0;entryX=0.5;entryY=1;entryDx=0;entryDy=0;" edge="1" parent="1" source="qByTygdXkCZE7n3OVfzW-3" target="qByTygdXkCZE7n3OVfzW-4">
          <mxGeometry x="-0.3692" y="26" width="160" relative="1" as="geometry">
            <mxPoint x="430" y="140" as="sourcePoint" />
            <mxPoint x="590" y="140" as="targetPoint" />
            <mxPoint as="offset" />
          </mxGeometry>
        </mxCell>
        <mxCell id="qByTygdXkCZE7n3OVfzW-16" value="&amp;lt;&amp;lt;include&amp;gt;&amp;gt;" style="html=1;verticalAlign=bottom;labelBackgroundColor=none;endArrow=open;endFill=0;dashed=1;rounded=0;exitX=0.5;exitY=0;exitDx=0;exitDy=0;entryX=0.485;entryY=1;entryDx=0;entryDy=0;entryPerimeter=0;" edge="1" parent="1" source="qByTygdXkCZE7n3OVfzW-2" target="qByTygdXkCZE7n3OVfzW-3">
          <mxGeometry x="-0.4984" y="25" width="160" relative="1" as="geometry">
            <mxPoint x="400" y="200" as="sourcePoint" />
            <mxPoint x="380" y="170" as="targetPoint" />
            <mxPoint as="offset" />
          </mxGeometry>
        </mxCell>
        <mxCell id="qByTygdXkCZE7n3OVfzW-17" value="&amp;lt;&amp;lt;include&amp;gt;&amp;gt;" style="html=1;verticalAlign=bottom;labelBackgroundColor=none;endArrow=open;endFill=0;dashed=1;rounded=0;exitX=0.956;exitY=0.723;exitDx=0;exitDy=0;exitPerimeter=0;entryX=1;entryY=0.5;entryDx=0;entryDy=0;" edge="1" parent="1" source="qByTygdXkCZE7n3OVfzW-3" target="qByTygdXkCZE7n3OVfzW-6">
          <mxGeometry x="-0.5893" y="26" width="160" relative="1" as="geometry">
            <mxPoint x="460" y="160" as="sourcePoint" />
            <mxPoint x="620" y="160" as="targetPoint" />
            <Array as="points">
              <mxPoint x="480" y="210" />
              <mxPoint x="490" y="270" />
              <mxPoint x="480" y="330" />
            </Array>
            <mxPoint as="offset" />
          </mxGeometry>
        </mxCell>
        <mxCell id="qByTygdXkCZE7n3OVfzW-18" value="&amp;lt;&amp;lt;include&amp;gt;&amp;gt;" style="html=1;verticalAlign=bottom;labelBackgroundColor=none;endArrow=open;endFill=0;dashed=1;rounded=0;entryX=0.987;entryY=0.361;entryDx=0;entryDy=0;entryPerimeter=0;exitX=0.5;exitY=0.5;exitDx=0;exitDy=0;exitPerimeter=0;" edge="1" parent="1" source="qByTygdXkCZE7n3OVfzW-11" target="qByTygdXkCZE7n3OVfzW-5">
          <mxGeometry x="-0.3022" y="-8" width="160" relative="1" as="geometry">
            <mxPoint x="330" y="280" as="sourcePoint" />
            <mxPoint x="490" y="280" as="targetPoint" />
            <mxPoint as="offset" />
          </mxGeometry>
        </mxCell>
        <mxCell id="qByTygdXkCZE7n3OVfzW-19" value="&amp;lt;&amp;lt;include&amp;gt;&amp;gt;" style="html=1;verticalAlign=bottom;labelBackgroundColor=none;endArrow=open;endFill=0;dashed=1;rounded=0;exitX=0;exitY=1;exitDx=0;exitDy=0;exitPerimeter=0;entryX=0.813;entryY=0.075;entryDx=0;entryDy=0;entryPerimeter=0;" edge="1" parent="1" source="qByTygdXkCZE7n3OVfzW-11" target="qByTygdXkCZE7n3OVfzW-6">
          <mxGeometry x="-0.238" y="30" width="160" relative="1" as="geometry">
            <mxPoint x="520" y="340" as="sourcePoint" />
            <mxPoint x="680" y="340" as="targetPoint" />
            <mxPoint as="offset" />
          </mxGeometry>
        </mxCell>
        <mxCell id="qByTygdXkCZE7n3OVfzW-21" value="" style="endArrow=none;html=1;rounded=0;" edge="1" parent="1">
          <mxGeometry width="50" height="50" relative="1" as="geometry">
            <mxPoint x="190" y="450" as="sourcePoint" />
            <mxPoint x="190" as="targetPoint" />
          </mxGeometry>
        </mxCell>
        <mxCell id="qByTygdXkCZE7n3OVfzW-22" value="" style="endArrow=none;html=1;rounded=0;" edge="1" parent="1">
          <mxGeometry width="50" height="50" relative="1" as="geometry">
            <mxPoint x="190" as="sourcePoint" />
            <mxPoint x="540" as="targetPoint" />
          </mxGeometry>
        </mxCell>
        <mxCell id="qByTygdXkCZE7n3OVfzW-23" value="" style="endArrow=none;html=1;rounded=0;" edge="1" parent="1">
          <mxGeometry width="50" height="50" relative="1" as="geometry">
            <mxPoint x="540" y="450.9259033203125" as="sourcePoint" />
            <mxPoint x="540" as="targetPoint" />
          </mxGeometry>
        </mxCell>
        <mxCell id="qByTygdXkCZE7n3OVfzW-24" value="" style="endArrow=none;html=1;rounded=0;" edge="1" parent="1">
          <mxGeometry width="50" height="50" relative="1" as="geometry">
            <mxPoint x="190" y="450" as="sourcePoint" />
            <mxPoint x="540" y="450" as="targetPoint" />
          </mxGeometry>
        </mxCell>
        <mxCell id="qByTygdXkCZE7n3OVfzW-25" value="" style="endArrow=classic;html=1;rounded=0;entryX=0;entryY=0.5;entryDx=0;entryDy=0;" edge="1" parent="1" source="qByTygdXkCZE7n3OVfzW-8" target="qByTygdXkCZE7n3OVfzW-6">
          <mxGeometry width="50" height="50" relative="1" as="geometry">
            <mxPoint x="380" y="300" as="sourcePoint" />
            <mxPoint x="430" y="250" as="targetPoint" />
          </mxGeometry>
        </mxCell>
        <mxCell id="qByTygdXkCZE7n3OVfzW-26" value="" style="endArrow=classic;html=1;rounded=0;" edge="1" parent="1" source="qByTygdXkCZE7n3OVfzW-1">
          <mxGeometry width="50" height="50" relative="1" as="geometry">
            <mxPoint x="380" y="300" as="sourcePoint" />
            <mxPoint x="280" y="310" as="targetPoint" />
          </mxGeometry>
        </mxCell>
        <mxCell id="qByTygdXkCZE7n3OVfzW-27" value="" style="endArrow=classic;html=1;rounded=0;" edge="1" parent="1">
          <mxGeometry width="50" height="50" relative="1" as="geometry">
            <mxPoint x="140" y="240" as="sourcePoint" />
            <mxPoint x="130" y="300" as="targetPoint" />
          </mxGeometry>
        </mxCell>
        <mxCell id="qByTygdXkCZE7n3OVfzW-28" value="" style="endArrow=classic;html=1;rounded=0;entryX=0;entryY=0.5;entryDx=0;entryDy=0;" edge="1" parent="1" target="qByTygdXkCZE7n3OVfzW-2">
          <mxGeometry width="50" height="50" relative="1" as="geometry">
            <mxPoint x="170" y="180" as="sourcePoint" />
            <mxPoint x="430" y="250" as="targetPoint" />
          </mxGeometry>
        </mxCell>
        <mxCell id="qByTygdXkCZE7n3OVfzW-29" value="" style="endArrow=classic;html=1;rounded=0;entryX=0.019;entryY=0.615;entryDx=0;entryDy=0;entryPerimeter=0;" edge="1" parent="1" target="qByTygdXkCZE7n3OVfzW-3">
          <mxGeometry width="50" height="50" relative="1" as="geometry">
            <mxPoint x="160" y="170" as="sourcePoint" />
            <mxPoint x="430" y="250" as="targetPoint" />
          </mxGeometry>
        </mxCell>
        <mxCell id="qByTygdXkCZE7n3OVfzW-30" value="" style="endArrow=classic;html=1;rounded=0;entryX=0;entryY=0.5;entryDx=0;entryDy=0;" edge="1" parent="1" target="qByTygdXkCZE7n3OVfzW-4">
          <mxGeometry width="50" height="50" relative="1" as="geometry">
            <mxPoint x="150" y="140" as="sourcePoint" />
            <mxPoint x="430" y="250" as="targetPoint" />
          </mxGeometry>
        </mxCell>
        <mxCell id="qByTygdXkCZE7n3OVfzW-31" value="" style="endArrow=classic;html=1;rounded=0;" edge="1" parent="1">
          <mxGeometry width="50" height="50" relative="1" as="geometry">
            <mxPoint x="660" y="290" as="sourcePoint" />
            <mxPoint x="130" y="400" as="targetPoint" />
            <Array as="points">
              <mxPoint x="660" y="520" />
              <mxPoint x="130" y="520" />
            </Array>
          </mxGeometry>
        </mxCell>
      </root>
    </mxGraphModel>
  </diagram>
</mxfile>
